<svg width="24" height="24" viewBox="0 0 24 24" fill="none" xmlns="http://www.w3.org/2000/svg">
<rect x="6" y="6" width="12" height="12" fill="white"/>
<path d="M12 1C5.93436 1 1 5.93436 1 12C1 18.0656 5.93436 23 12 23C18.0656 23 23 18.0656 23 12C23 5.93436 18.0656 1 12 1ZM16.0508 14.7545C16.4092 15.113 16.4092 15.6923 16.0508 16.0508C15.9658 16.136 15.8647 16.2037 15.7535 16.2497C15.6422 16.2958 15.523 16.3195 15.4026 16.3193C15.168 16.3193 14.9333 16.2295 14.7545 16.0508L12 13.2961L9.24549 16.0508C9.16047 16.1361 9.05945 16.2037 8.94823 16.2498C8.83701 16.2959 8.71778 16.3195 8.59739 16.3194C8.47699 16.3195 8.35774 16.2959 8.24651 16.2498C8.13527 16.2037 8.03424 16.1361 7.94921 16.0508C7.59085 15.6923 7.59085 15.113 7.94921 14.7545L10.7039 12L7.94916 9.24549C7.5908 8.88696 7.5908 8.3077 7.94916 7.94921C8.3077 7.59085 8.88696 7.59085 9.24549 7.94921L12 10.7039L14.7545 7.94916C15.113 7.5908 15.6923 7.5908 16.0508 7.94916C16.4092 8.3077 16.4092 8.88696 16.0508 9.24549L13.2961 12L16.0508 14.7545Z" fill="#FF0000"/>
</svg>
