<svg width="90" height="48" viewBox="0 0 90 48" fill="none" xmlns="http://www.w3.org/2000/svg">
<g clip-path="url(#clip0_6_13)">
<path d="M14 0V12H15L23 4H25V16.0237L26 16L34 8H36V39L27 47H26V20H25V35L16 43H15V16H14V31L5 39H4V13L2 15H0V12L4 8L12 0H14Z" fill="#0085FF"/>
<path d="M43 11H45.6549L48.4589 17.8409H48.5782L51.3821 11H54.037V21.1818H51.9489V14.5547H51.8644L49.2294 21.1321H47.8076L45.1726 14.5298H45.0881V21.1818H43V11ZM59.2509 21.3309C58.4654 21.3309 57.7893 21.1719 57.2225 20.8537C56.6591 20.5322 56.2249 20.0781 55.92 19.4915C55.615 18.9015 55.4626 18.2038 55.4626 17.3984C55.4626 16.6129 55.615 15.9235 55.92 15.3302C56.2249 14.737 56.6541 14.2746 57.2076 13.9432C57.7644 13.6117 58.4174 13.446 59.1664 13.446C59.6702 13.446 60.1392 13.5272 60.5734 13.6896C61.0109 13.8487 61.392 14.089 61.7168 14.4105C62.045 14.732 62.3002 15.1363 62.4825 15.6236C62.6648 16.1075 62.7559 16.6742 62.7559 17.3238V17.9055H56.3077V16.593H60.7623C60.7623 16.2881 60.696 16.018 60.5634 15.7827C60.4309 15.5473 60.2469 15.3634 60.0116 15.2308C59.7796 15.0949 59.5095 15.027 59.2012 15.027C58.8797 15.027 58.5947 15.1015 58.3461 15.2507C58.1008 15.3965 57.9086 15.5937 57.7694 15.8423C57.6302 16.0876 57.5589 16.361 57.5556 16.6626V17.9105C57.5556 18.2883 57.6252 18.6148 57.7644 18.8899C57.9069 19.165 58.1075 19.3771 58.366 19.5263C58.6245 19.6754 58.9311 19.75 59.2857 19.75C59.5211 19.75 59.7365 19.7168 59.932 19.6506C60.1276 19.5843 60.295 19.4848 60.4342 19.3523C60.5734 19.2197 60.6794 19.0573 60.7524 18.865L62.7112 18.9943C62.6117 19.4649 62.4079 19.8759 62.0997 20.2273C61.7947 20.5753 61.4003 20.847 60.9164 21.0426C60.4358 21.2348 59.8807 21.3309 59.2509 21.3309ZM66.2559 16.767V21.1818H64.138V13.5454H66.1565V14.8927H66.246C66.415 14.4486 66.6984 14.0973 67.0961 13.8388C67.4938 13.5769 67.9761 13.446 68.5428 13.446C69.0731 13.446 69.5355 13.562 69.9299 13.794C70.3243 14.026 70.6309 14.3575 70.8497 14.7883C71.0684 15.2159 71.1778 15.7263 71.1778 16.3196V21.1818H69.0599V16.6974C69.0632 16.2301 68.9439 15.8655 68.7019 15.6037C68.46 15.3385 68.1269 15.2059 67.7026 15.2059C67.4176 15.2059 67.1657 15.2673 66.947 15.3899C66.7315 15.5125 66.5625 15.6915 66.4399 15.9268C66.3205 16.1588 66.2592 16.4389 66.2559 16.767ZM76.3271 21.3309C75.5416 21.3309 74.8655 21.1719 74.2987 20.8537C73.7352 20.5322 73.3011 20.0781 72.9961 19.4915C72.6912 18.9015 72.5388 18.2038 72.5388 17.3984C72.5388 16.6129 72.6912 15.9235 72.9961 15.3302C73.3011 14.737 73.7303 14.2746 74.2838 13.9432C74.8406 13.6117 75.4935 13.446 76.2426 13.446C76.7464 13.446 77.2154 13.5272 77.6495 13.6896C78.087 13.8487 78.4682 14.089 78.793 14.4105C79.1211 14.732 79.3763 15.1363 79.5586 15.6236C79.7409 16.1075 79.8321 16.6742 79.8321 17.3238V17.9055H73.3839V16.593H77.8385C77.8385 16.2881 77.7722 16.018 77.6396 15.7827C77.507 15.5473 77.3231 15.3634 77.0878 15.2308C76.8557 15.0949 76.5856 15.027 76.2774 15.027C75.9559 15.027 75.6709 15.1015 75.4223 15.2507C75.177 15.3965 74.9848 15.5937 74.8456 15.8423C74.7064 16.0876 74.6351 16.361 74.6318 16.6626V17.9105C74.6318 18.2883 74.7014 18.6148 74.8406 18.8899C74.9831 19.165 75.1836 19.3771 75.4422 19.5263C75.7007 19.6754 76.0073 19.75 76.3619 19.75C76.5972 19.75 76.8127 19.7168 77.0082 19.6506C77.2038 19.5843 77.3711 19.4848 77.5103 19.3523C77.6495 19.2197 77.7556 19.0573 77.8285 18.865L79.7873 18.9943C79.6879 19.4649 79.4841 19.8759 79.1758 20.2273C78.8709 20.5753 78.4765 20.847 77.9926 21.0426C77.512 21.2348 76.9568 21.3309 76.3271 21.3309ZM43 25H45.6549L48.4589 31.8409H48.5782L51.3821 25H54.037V35.1818H51.9489V28.5547H51.8644L49.2294 35.1321H47.8076L45.1726 28.5298H45.0881V35.1818H43V25ZM57.9484 35.326C57.4612 35.326 57.027 35.2415 56.6458 35.0724C56.2647 34.9001 55.9631 34.6465 55.741 34.3118C55.5222 33.9737 55.4129 33.5528 55.4129 33.049C55.4129 32.6247 55.4908 32.2684 55.6465 31.9801C55.8023 31.6917 56.0144 31.4597 56.2829 31.2841C56.5514 31.1084 56.8563 30.9758 57.1977 30.8863C57.5424 30.7969 57.9036 30.7339 58.2815 30.6974C58.7256 30.651 59.0836 30.6079 59.3553 30.5682C59.6271 30.5251 59.8243 30.4621 59.947 30.3792C60.0696 30.2964 60.1309 30.1738 60.1309 30.0113V29.9815C60.1309 29.6666 60.0315 29.423 59.8326 29.2507C59.6371 29.0783 59.3586 28.9922 58.9974 28.9922C58.6162 28.9922 58.313 29.0767 58.0876 29.2457C57.8622 29.4114 57.7131 29.6202 57.6401 29.8721L55.6813 29.713C55.7808 29.249 55.9763 28.848 56.268 28.5099C56.5596 28.1685 56.9358 27.9067 57.3965 27.7244C57.8605 27.5388 58.3975 27.446 59.0073 27.446C59.4316 27.446 59.8376 27.4957 60.2254 27.5952C60.6165 27.6946 60.9628 27.8487 61.2644 28.0575C61.5693 28.2663 61.8096 28.5348 61.9853 28.8629C62.161 29.1877 62.2488 29.5772 62.2488 30.0312V35.1818H60.2403V34.1229H60.1806C60.058 34.3615 59.8939 34.572 59.6884 34.7542C59.4829 34.9332 59.236 35.0741 58.9477 35.1768C58.6593 35.2763 58.3262 35.326 57.9484 35.326ZM58.5549 33.8643C58.8665 33.8643 59.1416 33.803 59.3802 33.6804C59.6188 33.5544 59.8061 33.3854 59.942 33.1733C60.0779 32.9612 60.1458 32.7209 60.1458 32.4524V31.642C60.0795 31.6851 59.9884 31.7249 59.8724 31.7613C59.7597 31.7945 59.6321 31.826 59.4896 31.8558C59.347 31.8823 59.2045 31.9072 59.062 31.9304C58.9195 31.9503 58.7902 31.9685 58.6742 31.9851C58.4256 32.0215 58.2086 32.0795 58.0229 32.1591C57.8373 32.2386 57.6932 32.3463 57.5904 32.4822C57.4877 32.6148 57.4363 32.7805 57.4363 32.9794C57.4363 33.2677 57.5407 33.4881 57.7495 33.6406C57.9616 33.7898 58.2301 33.8643 58.5549 33.8643ZM63.8919 35.1818V27.5454H65.9452V28.8778H66.0247C66.1639 28.4039 66.3976 28.0459 66.7257 27.804C67.0538 27.5587 67.4317 27.4361 67.8592 27.4361C67.9653 27.4361 68.0796 27.4427 68.2023 27.4559C68.3249 27.4692 68.4326 27.4874 68.5254 27.5106V29.3899C68.426 29.3601 68.2885 29.3336 68.1128 29.3104C67.9371 29.2872 67.7764 29.2756 67.6305 29.2756C67.319 29.2756 67.0406 29.3435 66.7953 29.4794C66.5534 29.612 66.3611 29.7976 66.2186 30.0362C66.0794 30.2748 66.0098 30.5499 66.0098 30.8615V35.1818H63.8919ZM71.5395 32.9844L71.5444 30.4439H71.8527L74.2987 27.5454H76.7298L73.4436 31.3835H72.9414L71.5395 32.9844ZM69.6204 35.1818V25H71.7383V35.1818H69.6204ZM74.3932 35.1818L72.146 31.8558L73.5579 30.3594L76.874 35.1818H74.3932ZM80.9345 35.3309C80.149 35.3309 79.4729 35.1719 78.9061 34.8537C78.3427 34.5322 77.9085 34.0781 77.6036 33.4915C77.2986 32.9015 77.1462 32.2038 77.1462 31.3984C77.1462 30.6129 77.2986 29.9235 77.6036 29.3302C77.9085 28.737 78.3377 28.2746 78.8912 27.9432C79.448 27.6117 80.101 27.446 80.85 27.446C81.3538 27.446 81.8228 27.5272 82.257 27.6896C82.6945 27.8487 83.0756 28.089 83.4004 28.4105C83.7286 28.732 83.9838 29.1363 84.1661 29.6236C84.3484 30.1075 84.4395 30.6742 84.4395 31.3238V31.9055H77.9913V30.593H82.4459C82.4459 30.2881 82.3796 30.018 82.247 29.7827C82.1144 29.5473 81.9305 29.3634 81.6952 29.2308C81.4632 29.0949 81.193 29.027 80.8848 29.027C80.5633 29.027 80.2783 29.1015 80.0297 29.2507C79.7844 29.3965 79.5922 29.5937 79.453 29.8423C79.3138 30.0876 79.2425 30.361 79.2392 30.6626V31.9105C79.2392 32.2883 79.3088 32.6148 79.448 32.8899C79.5905 33.165 79.7911 33.3771 80.0496 33.5263C80.3081 33.6754 80.6147 33.75 80.9693 33.75C81.2046 33.75 81.4201 33.7168 81.6156 33.6506C81.8112 33.5843 81.9786 33.4848 82.1178 33.3523C82.257 33.2197 82.363 33.0573 82.4359 32.865L84.3948 32.9943C84.2953 33.4649 84.0915 33.8759 83.7832 34.2273C83.4783 34.5753 83.0839 34.847 82.6 35.0426C82.1194 35.2348 81.5643 35.3309 80.9345 35.3309ZM89.8834 27.5454V29.1363H85.2847V27.5454H89.8834ZM86.3287 25.7159H88.4466V32.8352C88.4466 33.0308 88.4764 33.1832 88.5361 33.2926C88.5957 33.3987 88.6786 33.4732 88.7847 33.5163C88.894 33.5594 89.02 33.5809 89.1625 33.5809C89.2619 33.5809 89.3614 33.5727 89.4608 33.5561C89.5602 33.5362 89.6365 33.5213 89.6895 33.5113L90.0226 35.0873C89.9165 35.1205 89.7674 35.1586 89.5751 35.2017C89.3829 35.2481 89.1493 35.2763 88.8742 35.2862C88.3637 35.3061 87.9163 35.2381 87.5318 35.0824C87.1507 34.9266 86.854 34.6846 86.6419 34.3565C86.4298 34.0284 86.3254 33.6141 86.3287 33.1136V25.7159Z" fill="#0085FF"/>
</g>
<defs>
<clipPath id="clip0_6_13">
<rect width="90" height="48" fill="white"/>
</clipPath>
</defs>
</svg>
